<svg xmlns="http://www.w3.org/2000/svg" viewBox="0 0 150 150">
<!-- SVG created with Arrow, by QuiverAI (https://quiver.ai) -->
  <style type="text/css">.cls-0 {fill:#00B8D4;}
.cls-1 {fill:#003677;}
.cls-2 {fill:#FFFFFF;}</style>
  <path class="cls-0" d="m74.7 55.2-9.7-7.3c-14.3-10.9-15.1-13.3-21.1-13.3-2.9 0-5.3-0.2-8.2 1.9-2.8 2-5.1 5.1-5.1 8.5v1.6c2-1.3 6.8-3.3 9.5-3.7 2.8-0.5 5.1 0.5 6.6 1.5l25.2 19.6c1.1 0.7 1.8 1.1 2.9 1.1s1.7-0.1 3.1-1.1l25.9-19c1.8-2.2 3.5-3 6.4-2.2 3.2 0.5 7.3 2.1 8.9 3.2v-1.4c-0.1-5.5-4.9-10-10.7-10-4.8-0.1-6.2 0.1-9.6 2.5l-24.1 18.1z"/>
  <path class="cls-0" d="m30.6 52.6 0.1 6.9c0.1 2.3 1.2 5.1 4 7.3 3.1 2.4 11.3 8.3 14.3 10.5 4.3 3.3 8.5 5.1 8.5 11.3v18.4c0.1 2.3 1.2 4.9 3 6.2l5.7 4.1 0.1-36.1c0-1.5-0.7-2.4-1.8-3.1l-33.9-25.5z"/>
  <path class="cls-1" d="m116.9 48.9c-3.6-1.9-7.5-4.1-11.6-1.9l-29.3 23.1c-0.9 0.7-1.1 1.2-2 0.5l-29.5-23.5c-2.5-1.7-5.3-1.6-11.6 2.2l36.1 27.7c0.8 0.7 1.2 1.6 1.2 2.8l0.1 38.1c0.2 3 4.1 4.1 6 3.4 1.5-0.3 3.1-1.5 3-3.4v-38.3c0-1.1 0.6-2.1 1.7-2.9l35.9-27.1 0.1-0.4h-0.1z"/>
  <path class="cls-1" d="m84.1 117.3 4.6-3.2c1.6-1.1 4.1-3.3 4-7.3v-18.9c0.1-3.3 2-5.7 4.1-7.4l9.7-7.2c7.9-5.9 9.4-6.7 10.8-8.4 1.5-1.9 2-3.9 2-6l-0.1-6.5-34.2 25.7c-1.2 0.9-1.6 1.9-1.5 3l0.1 36.2h0.5z"/>
  <path class="cls-2" d="m128.1 141.6h-4.2v-0.8h4l0.2 0.8zm-3.9 4.6v-0.7h0.8l-0.2-0.5h1v0.5h1v-0.5h1l-0.3 0.5h0.8v0.9h-4.1v-0.2zm-0.3-3.2 0.4-1h3.6l0.1 1.6c-0.1 0.6-0.7 0.6-0.7 0.6h-2.9l-0.5-1.2zm2.7 0.4 0.3-0.1v-0.1-0.1l-1.7 0.1v0.1 0.1h1.4zm2.1 2.9c-0.1-0.3 0-4.2 0-4.2h2.3v2.4l0.3 0.1v-2.7l-0.4-0.2h-2.2l0.3-0.6h2.6c0.9 0.1 0.9 0.9 0.9 0.9v2.7l-0.4 0.6h-2.1v-1.1h0.1l0.2 0.3h-0.3v-0.9l-0.3-0.1v1.9l2.8 0.1-0.3 0.9h-2.6l-0.9-0.1z"/>
  <path class="cls-2" d="m133.8 145.1-0.3 1.2h-0.4l1.2-4.7h1.2l1.2 4.7h-0.6l-0.5-1.2h-1.8zm1-2.5-0.5 1.7h1.1l-0.6-1.7z"/>
  <path class="cls-2" d="m137.4 141.6h0.7v4.7h-0.7v-4.7z"/>
  <path class="cls-2" d="m143 145.5v0.9h-4v-0.8h1.5v-1h-1.3v-0.9h1.3v-0.5h-1.4v-1.7l0.8-0.1 0.1 0.7h0.4l0.1-0.7h0.9v0.7l1.1 0.1 0.2 0.8-1.3 0.1v0.6l1.1 0.1v0.8l-1.1 0.1v0.8h1.6z"/>
  <path class="cls-2" d="m147.1 144.6 0.3 0.4-0.4 0.9 0.3 0.6h-0.7l-0.3-1.1-0.6 0.8h-0.5v-0.6l0.8-1-0.4-1.5h-1l-0.1 3.3h-0.8l0.2-4.4 2-0.1 0.1-0.5h0.7l0.1 0.5h0.4l0.3 0.9h-0.5v1.2l0.1-0.3 0.4 0.4-0.4 0.5zm-1.8-1.5-0.2-0.5h-0.5v0.5h0.7z"/>
</svg>